<?xml version="1.0" encoding="utf-8" ?>
<svg xmlns="http://www.w3.org/2000/svg" xmlns:xlink="http://www.w3.org/1999/xlink" width="1102" height="398">
	<path fill="#DDD" transform="matrix(1.77742 0 0 1.77679 -6.10352e-05 0)" d="M531.799 158.362C531.41 158.156 531.364 158.164 531.174 157.743C532.969 156.264 543.681 157.7 546.512 157.594C547.197 157.569 547.62 157.654 548.104 157.132C549.697 157.201 557.089 157.818 558.125 158.634L558.855 159.184C557.886 160.05 556.373 159.868 555.612 160.661C555.728 161.394 555.925 161.463 556.453 161.958C555.903 162.585 555.644 162.207 555.136 163.06C551.141 162.154 547.056 161.625 543.034 160.831C539.113 160.251 535.293 159.761 531.322 159.696C531.059 159.322 530.978 159.285 530.999 158.811L531.799 158.362Z"/>
	<path fill="#AAA" transform="matrix(1.77742 0 0 1.77679 -6.10352e-05 0)" d="M531.799 158.362C534.248 158.442 548.638 158.977 550.03 159.629C547.597 159.797 545.395 160.777 543.034 160.831C539.113 160.251 535.293 159.761 531.322 159.696C531.059 159.322 530.978 159.285 530.999 158.811L531.799 158.362Z"/>
	<defs>
		<linearGradient id="gradient_0" gradientUnits="userSpaceOnUse" x1="564.88397" y1="160.84909" x2="559.23004" y2="159.93814">
			<stop offset="0" stop-color="#B4B4B4"/>
			<stop offset="1" stop-color="#D0D0D0"/>
		</linearGradient>
	</defs>
	<path fill="url(#gradient_0)" transform="matrix(1.77742 0 0 1.77679 -6.10352e-05 0)" d="M558.125 158.634C566.086 159.193 582.312 164.742 588.717 169.787L588.851 170.079L588.403 170.372C587.366 169.143 581.88 166.101 580.392 166.081C579.108 166.064 577.767 166.872 576.377 166.819C569.405 166.55 562.017 164.33 555.136 163.06C555.644 162.207 555.903 162.585 556.453 161.958C555.925 161.463 555.728 161.394 555.612 160.661C556.373 159.868 557.886 160.05 558.855 159.184L558.125 158.634Z"/>
	<path fill="#CCC" transform="matrix(1.77742 0 0 1.77679 -6.10352e-05 0)" d="M573.54 172.514C576.009 172.104 583.961 170.027 586.072 171.307C586.126 171.522 586.258 171.771 586.133 171.963C584.523 174.439 572.898 176.686 569.804 177.247C561.111 178.824 552.817 179.206 543.999 178.542C540.599 178.795 536.194 177.892 532.668 177.675L532.454 177.217C532.806 176.916 533.116 176.607 533.421 176.258C535.921 176.215 538.488 175.842 540.991 175.666C551.877 174.902 562.68 173.47 573.54 172.514ZM572.067 173.934Q564.411 175.123 556.684 175.678C553.048 175.946 549.375 175.898 545.783 176.571C547.875 177.054 549.954 177.104 552.088 177.177C560.681 177.09 570.964 176.882 578.973 173.585L579.055 173.313C576.742 173.173 574.367 173.683 572.067 173.934Z"/>
	<path fill="#DDD" transform="matrix(1.77742 0 0 1.77679 -6.10352e-05 0)" d="M533.421 176.258C535.921 176.215 538.488 175.842 540.991 175.666C551.877 174.902 562.68 173.47 573.54 172.514C573.502 172.525 573.465 172.537 573.427 172.548C571.904 172.992 568.52 172.812 567.415 173.755C568.619 174.444 570.669 173.816 572.067 173.934Q564.411 175.123 556.684 175.678C553.048 175.946 549.375 175.898 545.783 176.571C547.875 177.054 549.954 177.104 552.088 177.177C549.692 178.133 546.766 177.04 544.271 177.665L543.999 178.542C540.599 178.795 536.194 177.892 532.668 177.675L532.454 177.217C532.806 176.916 533.116 176.607 533.421 176.258Z"/>
	<path fill="#CCC" transform="matrix(1.77742 0 0 1.77679 -6.10352e-05 0)" d="M588.851 170.079C592.508 171.494 595.682 176.615 597.189 180.043C599.75 185.869 600.484 195.48 598.177 201.38C596.719 205.109 593.669 207.617 590.067 209.173C586.593 210.675 574.149 213.138 572.471 214.823C571.59 215.736 564.748 216.332 563.252 216.393C562.948 216.406 562.668 216.316 562.384 216.219C562.314 216.195 562.242 216.175 562.172 216.149C562.129 216.134 562.089 216.114 562.047 216.096L561.858 215.638C560.197 215.284 558.094 215.054 556.767 213.953L556.61 213.824C554.804 212.334 553.29 210.229 551.749 208.453C547.308 203.332 541.764 199.09 534.639 199.752C527.068 200.455 519.4 206.854 514.685 212.59C513.565 213.952 511.822 216.313 511.971 218.169C512.043 219.071 512.549 219.59 513.227 220.136C517.637 223.687 530.642 222.121 536.372 222.266C535.959 222.428 535.599 222.595 535.23 222.844C536.294 223.242 537.434 222.778 538.55 223.287L537.574 224L519.154 224C518.931 223.016 515.17 222.615 514.131 222.234C511.752 221.364 511.437 219.649 509.862 218.066L509.72 217.925C510.919 217.018 511.598 214.774 512.504 213.507C513.3 212.395 514.281 211.364 515.217 210.366C520.451 204.788 527.337 198.799 535.366 198.567C541.661 198.386 547.212 201.756 551.41 206.263C553.108 208.086 554.574 210.159 556.394 211.865C558.191 213.549 560.076 214.46 562.589 214.373C569.947 214.118 590.156 210.068 595.161 204.645C598.456 201.076 598.588 195.704 598.386 191.132C597.978 181.912 595.083 176.494 588.403 170.372L588.851 170.079Z"/>
	<path fill="#AAA" transform="matrix(1.77742 0 0 1.77679 -6.10352e-05 0)" d="M446.74 219.905C440.442 219.36 434.273 217.802 427.99 217.108C420.229 216.25 411.862 216.553 404.045 216.713C400.646 216.783 397.259 217.186 393.864 217.366C371.828 218.536 349.58 221.337 327.491 220.718C305.674 220.108 283.943 217.758 262.238 215.626C248.392 214.265 234.207 212.671 220.291 212.669C215.663 212.668 210.889 212.518 206.284 212.972C200.052 213.588 193.853 214.864 187.611 215.323C182.654 215.687 177.499 215.434 172.522 215.396C167.766 215.361 163.007 215.51 158.254 215.447C155.504 215.411 152.771 214.942 150.041 214.654C146.418 214.273 142.778 214.009 139.151 213.636C126.632 212.347 114.106 211.001 101.568 209.9C95.4358 209.361 89.2354 209.118 83.0839 208.876C80.0598 208.757 76.9631 208.992 73.9822 208.419C83.5311 208.312 93.0556 208.13 102.598 208.799C110.236 209.335 117.735 210.471 125.335 211.302Q142.803 213.174 160.337 214.277C164.613 214.519 168.982 214.363 173.267 214.36C176.919 214.357 180.679 214.526 184.319 214.285C188.632 213.999 192.932 213.098 197.242 212.684Q210.421 211.44 223.65 211.936C255.32 212.919 286.68 218.504 318.344 219.33Q343.184 219.919 367.979 218.308C389.185 217.001 410.587 213.902 431.786 216.688C434.694 217.07 437.686 217.385 440.529 218.108C440.55 216.889 438.632 215.731 438.224 214.465C437.968 213.672 438.044 212.737 438.424 211.997C439.176 210.529 440.867 209.738 442.374 209.265C446.205 208.066 451.326 208.249 454.918 210.14C456.172 210.8 457.556 211.766 457.975 213.142C458.262 213.792 458.657 214.447 458.493 215.174C457.83 215.274 457.637 214.954 457.109 214.567L457.297 215.503C454.851 217.654 448.898 217.747 445.828 217.734C447.224 217.955 448.336 217.932 449.526 218.781L449.278 219.461L449.748 219.192L449.597 219.135C448.7 219.966 447.935 219.849 446.74 219.905ZM440.014 215.81C441.963 216.749 443.647 217.531 445.828 217.734C448.898 217.747 454.851 217.654 457.297 215.503L457.109 214.567C457.04 213.573 456.708 213 455.96 212.339C453.368 210.046 449.106 209.425 445.775 209.672C443.846 209.816 441.251 210.314 439.918 211.841C439.407 212.426 439.163 212.968 439.119 213.739C439.488 214.42 439.841 215.05 440.014 215.81Z"/>
	<path fill="#CCC" transform="matrix(1.77742 0 0 1.77679 -6.10352e-05 0)" d="M465.079 213.582C464.522 213.026 456.982 210.859 454.08 208.52C450.986 206.025 449.184 202.545 448.765 198.605C448.098 192.339 450.211 182.93 454.196 178.02C456.078 175.701 458.59 174.293 461.571 174.005C466.89 173.492 474.587 175.859 480.037 176.641C490.827 178.189 502.144 178.739 512.999 177.64L513.077 177.071L513.571 177.289C512.678 176.746 511.602 176.7 510.587 176.571C511.255 176.501 512.084 176.527 512.577 176.017L512.135 175.359C519.256 175.397 526.304 176.415 533.421 176.258C533.116 176.607 532.806 176.916 532.454 177.217L532.668 177.675C528.178 177.847 523.733 178.398 519.253 178.62C508.366 179.161 497.087 179.262 486.214 178.441C481.879 178.114 477.487 177.368 473.221 176.538C469.715 175.856 465.936 174.753 462.363 174.844C459.665 174.914 457.398 175.974 455.575 177.961C451.416 182.495 449.405 191.319 449.712 197.326C449.904 201.069 451.197 204.32 454.023 206.844C458.81 211.119 466.901 213.137 473.197 212.743C485.333 211.982 494.95 199.867 507.363 210.852C508.332 211.709 509.288 212.778 509.347 214.138C509.397 215.266 508.789 216.377 508.022 217.166C505.249 220.019 499.726 220.388 496.019 220.387C490.692 220.384 484.947 219.353 479.834 217.905C475.656 216.722 471.374 214.808 466.983 214.82C458.409 214.845 458.034 220.912 446.74 219.905C447.935 219.849 448.7 219.966 449.597 219.135L449.748 219.192L449.278 219.461L449.526 218.781C448.336 217.932 447.224 217.955 445.828 217.734C448.898 217.747 454.851 217.654 457.297 215.503L457.109 214.567C457.637 214.954 457.83 215.274 458.493 215.174C458.657 214.447 458.262 213.792 457.975 213.142C458.454 213.526 458.677 214.113 459.195 214.474C460.326 215.264 463.722 213.852 465.079 213.582ZM492.927 207.805C488.036 208.929 477.16 214.487 473.51 214.139L473.286 214.421C476.637 216.276 484.529 218.043 488.379 218.636C493.494 219.273 501.704 220.331 506.079 217.027C506.939 216.377 507.68 215.478 507.797 214.371C507.897 213.434 507.436 212.47 506.847 211.769C504.733 209.25 500.046 207.943 496.903 207.725C495.583 207.634 494.244 207.704 492.927 207.805Z"/>
	<path fill="#AAA" transform="matrix(1.77742 0 0 1.77679 -6.10352e-05 0)" d="M507.359 0L510.947 0L619.47 0C619.743 0.432733 619.906 0.833195 619.944 1.34618C620.329 6.5092 619.998 11.9509 619.999 17.1404L620.004 48.5916L620.009 173.496L620.007 203.078C620.007 206.076 620.52 211.821 619.867 214.476C619.803 214.736 619.718 214.988 619.632 215.242L619.61 216.102C620.251 217.674 620.422 221.797 619.786 223.421C619.706 223.628 619.594 223.817 619.47 224L537.574 224L538.55 223.287C537.434 222.778 536.294 223.242 535.23 222.844C535.599 222.595 535.959 222.428 536.372 222.266C543.5 222.313 550.389 219.456 557.109 217.515C558.571 217.093 560.893 217.034 562.047 216.096C562.089 216.114 562.129 216.134 562.172 216.149C562.242 216.175 562.314 216.195 562.384 216.219C562.668 216.316 562.948 216.406 563.252 216.393C564.748 216.332 571.59 215.736 572.471 214.823C574.149 213.138 586.593 210.675 590.067 209.173C593.669 207.617 596.719 205.109 598.177 201.38C600.484 195.48 599.75 185.869 597.189 180.043C595.682 176.615 592.508 171.494 588.851 170.079L588.717 169.787C582.312 164.742 566.086 159.193 558.125 158.634C557.089 157.818 549.697 157.201 548.104 157.132C547.62 157.654 547.197 157.569 546.512 157.594C543.681 157.7 532.969 156.264 531.174 157.743C531.364 158.164 531.41 158.156 531.799 158.362L530.999 158.811C530.978 159.285 531.059 159.322 531.322 159.696C524.465 159.561 517.563 159.764 510.702 159.836L510.549 159.878C507.576 160.667 503.934 160.556 500.838 160.959C495.814 161.613 472.325 165.292 469.845 169.174C469.668 169.452 469.566 169.779 469.476 170.093C470.097 171.262 471.595 171.575 472.8 171.946C480.407 174.291 489.161 174.068 497.047 174.514C502.088 174.8 507.081 175.318 512.135 175.359L512.577 176.017C512.084 176.527 511.255 176.501 510.587 176.571C502.676 175.65 474.002 175.638 469.325 171.44C468.694 170.873 468.621 170.467 468.558 169.67C470.539 164.599 483.82 163.743 488.267 161.599L488.401 161.158C486.834 160.613 484.804 161.004 483.132 160.906C472.232 160.267 461.363 161.392 451.941 154.79C451.487 153.952 450.789 153.193 450.287 152.369C448.92 150.127 448.962 147.222 449.563 144.737C451.097 138.395 456.872 132.392 461.715 128.206C470.316 120.77 480.115 114.341 491.719 113.302C496.866 112.841 502.394 113.234 507.551 113.463C510.293 113.584 513.018 113.984 515.763 114.055C522.291 114.224 529.115 113.493 535.581 112.634C538.681 112.221 543.831 111.936 546.503 110.319C545.238 109.32 537.477 110.844 535.4 111.085C526.762 112.089 518.02 113.27 509.305 112.845C500.186 112.4 488.386 108.838 481.25 103.154C477.199 99.9268 473.669 95.4531 473.096 90.1502C472.772 87.1487 473.41 84.2939 475.346 81.9339C476.798 80.1639 478.93 78.6064 481.081 77.8127C490.196 74.4506 504.963 77.3252 514.696 78.0269C521.014 78.4823 527.689 78.6026 533.991 77.9457C537.053 77.6265 548.896 75.7179 550.528 73.7072C548.681 72.7727 526.853 75.7471 522.459 75.8855C511.714 76.224 498.23 76.0085 488.16 71.9738C483.967 70.2937 479.537 67.0342 477.744 62.7521C476.886 60.7011 476.714 58.4632 477.603 56.3776C479.001 53.0955 483.242 50.0546 486.524 48.967C488.277 48.3862 490.113 48.1703 491.843 47.4949C490.439 46.4334 487.104 46.0009 485.369 45.3421C483.906 44.7868 482.206 43.7117 481.578 42.2182C481.257 41.4527 481.44 40.5846 481.754 39.8469C485.858 30.2206 505.317 26.4569 514.515 24.6517C517.485 24.0689 521.092 23.8318 523.862 22.6826L523.957 22.6426C523.033 21.8565 520.878 21.6348 519.684 21.351C514.254 20.0608 508.145 17.9729 504.485 13.4993C502.914 11.5793 501.177 7.9092 501.898 5.39913C502.181 4.4118 502.884 3.43347 502.969 2.41785C502.972 2.38186 502.973 2.34571 502.975 2.30965C504.084 1.79947 506.785 0.989875 507.359 0ZM510.947 0C515.114 1.59988 519.693 2.39831 523.989 3.63959C530.349 5.47761 536.426 8.01093 542.377 10.8845C544.241 11.7845 546.749 12.6882 548.064 14.324C547.953 14.7909 547.748 15.0894 547.462 15.47C547.623 16.7888 547.728 18.0322 546.863 19.1604C545.792 20.5577 543.012 21.6177 541.343 22.1503C545.672 23.2787 551.517 24.7683 553.951 28.9079Q554.125 29.2028 554.268 29.5136Q554.412 29.8243 554.524 30.1478Q554.636 30.4712 554.715 30.8042Q554.795 31.1372 554.84 31.4765Q554.886 31.8157 554.898 32.1578Q554.91 32.4999 554.888 32.8415Q554.866 33.1831 554.809 33.5208Q554.753 33.8585 554.664 34.1889C553.768 37.4486 550.511 39.6794 547.714 41.2156C542.395 44.1375 536.221 45.724 530.295 46.857C537.905 47.9453 554.832 52.6111 559.589 58.8812C560.63 60.2542 561.324 61.9983 561.097 63.7438C560.666 67.0716 557.11 69.3035 554.641 71.1321C554.078 71.549 553.545 71.9538 552.904 72.2476C560.544 72.878 572.582 75.1389 577.638 81.1208C579.421 83.2295 580.471 85.8422 580.209 88.6295C579.816 92.8297 576.817 96.355 573.679 98.9251C568.332 103.305 562.112 105.405 555.456 106.782C564.911 109.168 579.796 113.528 585.051 122.424Q585.349 122.926 585.596 123.456Q585.843 123.985 586.037 124.537Q586.23 125.088 586.368 125.656Q586.506 126.223 586.588 126.802Q586.669 127.381 586.693 127.964Q586.716 128.548 586.682 129.131Q586.648 129.715 586.557 130.292Q586.465 130.869 586.317 131.434C586.005 132.6 585.509 133.748 584.588 134.554L584.474 134.655C584.459 136.199 582.366 138.244 581.31 139.278C571.4 148.98 555.233 153.039 542.143 156.211C544.141 156.472 546.124 156.745 548.104 157.132C549.697 157.201 557.089 157.818 558.125 158.634C566.086 159.193 582.312 164.742 588.717 169.787L588.851 170.079C592.508 171.494 595.682 176.615 597.189 180.043C599.75 185.869 600.484 195.48 598.177 201.38C596.719 205.109 593.669 207.617 590.067 209.173C586.593 210.675 574.149 213.138 572.471 214.823C571.59 215.736 564.748 216.332 563.252 216.393C562.948 216.406 562.668 216.316 562.384 216.219C562.314 216.195 562.242 216.175 562.172 216.149C562.129 216.134 562.089 216.114 562.047 216.096C560.893 217.034 558.571 217.093 557.109 217.515C550.389 219.456 543.5 222.313 536.372 222.266C535.959 222.428 535.599 222.595 535.23 222.844C536.294 223.242 537.434 222.778 538.55 223.287L537.574 224L619.47 224C619.594 223.817 619.706 223.628 619.786 223.421C620.422 221.797 620.251 217.674 619.61 216.102L619.632 215.242C619.718 214.988 619.803 214.736 619.867 214.476C620.52 211.821 620.007 206.076 620.007 203.078L620.009 173.496L620.004 48.5916L619.999 17.1404C619.998 11.9509 620.329 6.5092 619.944 1.34618C619.906 0.833195 619.743 0.432733 619.47 0L510.947 0ZM553.754 73.3794C550.991 76.9173 537.898 78.7976 533.276 79.3654C528.295 79.9771 522.96 80.031 517.959 79.6786C507.892 78.9693 482.96 73.9103 476.331 82.2769C474.544 84.5321 473.891 87.4157 474.233 90.2407C474.853 95.3616 478.216 99.5438 482.174 102.613C498.137 114.994 520.844 111.667 539.426 109.267C542.562 108.862 549.942 107.29 552.533 108.63L552.782 109.092C552.253 110.195 551.279 110.583 550.16 110.969C535.834 115.909 518.499 115.064 503.562 114.67C497.845 114.519 491.678 113.895 486.095 115.257C478.312 117.157 471.33 121.679 465.154 126.626C460.014 130.743 454.877 135.479 451.927 141.479C450.712 143.95 449.531 147.246 450.461 149.968C450.882 151.2 452.454 152.996 452.555 154.081C454.952 155.426 457.003 156.982 459.696 157.798C470.154 160.965 483.387 159.678 494.217 159.321C499.695 159.14 505.101 159.196 510.578 158.772C512.718 158.66 518.952 158.717 520.621 157.847C521.661 157.305 521.663 156.629 523.071 156.464C526.758 156.031 530.517 156.481 534.21 156.06C547.923 154.497 568.709 149.051 579.264 139.717C580.801 138.359 583.739 135.954 583.87 133.793C585.222 132.292 585.745 130.071 585.641 128.078C585.447 124.401 583.44 121.203 580.735 118.819C575.264 113.995 566.596 110.899 559.596 109.141C557.394 108.588 554.401 108.361 552.436 107.306C552.171 107.164 552.24 107.089 552.187 106.81C554.077 105.159 560.774 104.464 563.515 103.563C569.707 101.528 578.773 95.293 579.344 88.1033C579.533 85.7242 578.526 83.5798 576.985 81.8332C571.515 75.6301 561.489 74.5837 553.754 73.3794ZM508.571 1.66482C506.563 1.8073 504.901 2.09169 503.476 3.6954C502.744 4.51803 502.484 5.59279 502.571 6.67292C502.826 9.84385 505.222 13.0124 507.597 14.9651C513.951 20.1891 523.264 21.8493 531.262 21.0246C533.309 20.8135 540.616 18.5584 541.937 19.3257C538.975 23.5118 497.351 24.8435 484.896 37.1149C483.829 38.1664 482.173 39.702 482.495 41.3625C482.692 42.3771 483.543 43.1064 484.378 43.6284C490.078 47.1956 506.963 48.6847 514.316 49.831L535.522 53.1992C539.762 53.8413 545.346 54.092 549.28 55.766C550.068 56.1015 550.337 56.2563 550.669 57.0433C550.236 57.8203 549.875 58.0986 548.998 58.3395C546.134 59.126 542.547 58.521 539.619 58.205C533.733 57.5697 527.921 56.8098 522.174 55.3352C510.9 52.442 496.883 45.6418 485.459 50.5321C482.976 51.5946 480.676 53.272 479.254 55.6058C478.471 56.8907 477.668 58.4199 478.039 59.9567C478.291 60.9968 479.056 62.3717 478.94 63.4158C480.224 64.9775 481.661 66.815 483.238 68.0823C488.158 72.037 495.588 73.3768 501.75 73.9791C511.116 74.8945 521.443 74.7465 530.823 73.8259C537.615 73.1592 545.71 71.5966 552.432 72.0982C554.069 70.8173 559.902 65.4872 560.145 63.662C560.356 62.0776 559.659 60.5427 558.684 59.3374C554.04 53.598 535.707 48.2685 528.397 47.552C523.509 47.0728 509.042 49.7593 505.547 46.7513C505.518 46.5032 505.43 46.3183 505.591 46.1146C506.469 45.0007 507.959 44.949 509.266 44.8197C515.617 44.1917 521.686 45.9547 527.956 45.9511C534.26 45.9475 548.183 41.4383 552.246 36.5642C553.081 35.563 553.91 33.9023 553.785 32.5667C553.772 32.4241 553.753 32.3792 553.716 32.2303C553.865 30.8825 553.323 29.6511 552.482 28.6153C549.544 24.9987 543.455 23.8194 539.152 22.5157C541.059 21.5849 546.179 19.2712 546.815 17.2606C547.006 16.6575 546.849 16.4044 546.607 15.8467C546.096 15.3851 545.646 15.0695 544.96 14.9337C542.864 14.5187 540.561 14.5887 538.426 14.3856Q535.11 14.0561 531.851 13.3585Q528.593 12.661 525.432 11.6042C522.035 10.4451 516.517 8.51511 514.174 5.81468C513.211 4.70571 513.506 2.43663 512.497 1.86155C511.735 1.42788 509.465 1.65282 508.571 1.66482ZM514.244 3.17818C514.58 4.79344 515.49 5.49124 516.828 6.37277C523.198 10.571 532.297 12.7025 539.843 13.1574C540.884 13.2202 542.3 13.4537 543.313 13.2525C542.718 11.9796 526.346 5.85698 523.79 4.92525C520.723 3.80723 517.535 2.79343 514.244 3.17818ZM516.276 51.9133C518.887 54.5708 538.743 56.9864 542.964 57.0095C543.957 57.015 545.548 57.1873 546.44 56.757C546.287 56.608 546.048 56.3002 545.871 56.2045C544.844 55.6484 518.995 51.788 517.193 51.8348C516.883 51.8429 516.582 51.87 516.276 51.9133Z"/>
	<path fill="#AAA" transform="matrix(1.77742 0 0 1.77679 -6.10352e-05 0)" d="M572.471 214.823C577.023 214.833 581.564 214.463 586.119 214.572C597.031 214.832 608.82 215.726 619.632 215.242L619.61 216.102L589.976 215.737C582.959 215.719 576.078 215.611 569.111 216.582C565.841 217.037 561.514 217.231 558.547 218.588C556.304 219.615 554.339 221.376 551.923 222.017C551.152 222.221 550.585 221.451 549.934 221.364C549.015 221.241 540.338 223.041 538.55 223.287C537.434 222.778 536.294 223.242 535.23 222.844C535.599 222.595 535.959 222.428 536.372 222.266C543.5 222.313 550.389 219.456 557.109 217.515C558.571 217.093 560.893 217.034 562.047 216.096C562.089 216.114 562.129 216.134 562.172 216.149C562.242 216.175 562.314 216.195 562.384 216.219C562.668 216.316 562.948 216.406 563.252 216.393C564.748 216.332 571.59 215.736 572.471 214.823Z"/>
</svg>
